# xmcd
#
# Track frame offsets: 
#        150
#        25654
#        49904
#        85049
#        95345
#        116447
#        153877
#        168869
#        211950
#        239988
#        264438
#        289505
#        314308
#
# Disc length: 4460 seconds
#
# Revision: 0
# Processed by: cddbd v1.5.2PL0 Copyright (c) Steve Scherf et al.
# Submitted via: ExactAudioCopy v1.1
#
DISCID=a4116a0d
DTITLE=Various Artist - Blues Paradise  Vol.30
DYEAR=2005
DGENRE=Blues
TTITLE0=Barry Levenson and Jake Sampson - Real What You Saw
TTITLE1=Corey Stevens - Getaway
TTITLE2=Mick Moody and Bernie Marsden - A Mind To Get Even
TTITLE3=Sean Costello - Jumpin` Salty
TTITLE4=Jay Gordon - Drippin Blues
TTITLE5=Gov’t Mule - No Need To Suffer
TTITLE6=The Mick Pini Band - Looking For Somebody
TTITLE7=Walter Trout and The Free Radicals - The Reason I`m Gone
TTITLE8=T. W. Henderson and The Blues Of Cain - It Wasn`t Me Who Brought
TTITLE8=The Tears
TTITLE9=Vargas Blues Band - Buenos Airiers Blues
TTITLE10=Bernard Allison - Love In Free
TTITLE11=Gene Deer - Livin With The Blues
TTITLE12=Larry Carlton - Crazy Mama
EXTD=
EXTT0=
EXTT1=
EXTT2=
EXTT3=
EXTT4=
EXTT5=
EXTT6=
EXTT7=
EXTT8=
EXTT9=
EXTT10=
EXTT11=
EXTT12=
PLAYORDER=
